<?xml version="1.0" encoding="UTF-8" standalone="no"?>
<svg width="20px" height="20px" viewBox="0 0 20 20" version="1.1" xmlns="http://www.w3.org/2000/svg" xmlns:xlink="http://www.w3.org/1999/xlink" xmlns:sketch="http://www.bohemiancoding.com/sketch/ns">
    <!-- Generator: Sketch 3.5.1 (25234) - http://www.bohemiancoding.com/sketch -->
    <title>back</title>
    <desc>Created with Sketch.</desc>
    <defs></defs>
    <g id="Page-1" stroke="none" stroke-width="1" fill="none" fill-rule="evenodd" sketch:type="MSPage">
        <g id="Artboard" sketch:type="MSArtboardGroup" fill="#16263D">
            <path d="M9.28240741,19.4675926 L0.115740741,10.3009259 C0.0385798611,10.1929007 0,10.0925931 0,10 C0,9.90740694 0.0385798611,9.80709931 0.115740741,9.69907407 L9.28240741,0.532407407 C9.40586481,0.40895 9.56018426,0.378086111 9.74537037,0.439814815 C9.91512431,0.516975694 10,0.648147222 10,0.833333333 L10,6.25 L19.5833333,6.25 C19.7067907,6.25 19.8070984,6.28857986 19.8842593,6.36574074 C19.9614201,6.44290162 20,6.54320926 20,6.66666667 L20,13.3333333 C20,13.4567907 19.9614201,13.5570984 19.8842593,13.6342593 C19.8070984,13.7114201 19.7067907,13.75 19.5833333,13.75 L10,13.75 L10,19.1666667 C10,19.3518528 9.91512431,19.4830243 9.74537037,19.5601852 C9.56018426,19.6219139 9.40586481,19.59105 9.28240741,19.4675926 L9.28240741,19.4675926 Z" id="back" sketch:type="MSShapeGroup"></path>
        </g>
    </g>
</svg>