<svg xmlns="http://www.w3.org/2000/svg" width="49" height="49" viewBox="0 0 49 49" version="1.1"><g stroke="none" stroke-width="1" fill="none" fill-rule="evenodd"><g transform="translate(-1006.000000, -506.000000)" fill="#02C2B9"><g transform="translate(100.000000, 410.000000)"><g transform="translate(0.000000, 80.000000)"><path d="M930.5 64.5C943.8 64.5 954.5 53.8 954.5 40.5 954.5 27.2 943.8 16.5 930.5 16.5 917.2 16.5 906.5 27.2 906.5 40.5 906.5 53.8 917.2 64.5 930.5 64.5L930.5 64.5ZM930.5 63.5C917.8 63.5 907.5 53.2 907.5 40.5 907.5 27.8 917.8 17.5 930.5 17.5 943.2 17.5 953.5 27.8 953.5 40.5 953.5 53.2 943.2 63.5 930.5 63.5L930.5 63.5ZM923.4 40.3C923.7 40.3 924 40.4 924.3 40.6L928.8 44.2 936.5 32.6C936.8 32.3 937.1 32.1 937.5 32 937.9 32 938.2 32 938.5 32.3 938.9 32.5 939.1 32.8 939.1 33.2 939.2 33.6 939.1 34 938.9 34.4L930.3 47.2C930.1 47.5 929.8 47.8 929.4 47.8 929 47.9 928.6 47.8 928.3 47.6L922.6 43C922.3 42.8 922.1 42.4 922 42 922 41.6 922.1 41.2 922.3 40.9 922.6 40.5 923 40.3 923.4 40.3L923.4 40.3Z"/></g></g></g></g></svg>