<?xml version="1.0" encoding="UTF-8" standalone="no"?>
<svg width="39px" height="31px" viewBox="0 0 39 31" version="1.1" xmlns="http://www.w3.org/2000/svg" xmlns:xlink="http://www.w3.org/1999/xlink" xmlns:sketch="http://www.bohemiancoding.com/sketch/ns">
    <!-- Generator: Sketch 3.4.4 (17249) - http://www.bohemiancoding.com/sketch -->
    <title>contacts</title>
    <desc>Created with Sketch.</desc>
    <defs></defs>
    <g id="screens" stroke="none" stroke-width="1" fill="none" fill-rule="evenodd" sketch:type="MSPage">
        <g id="onboarding-–-step-4" sketch:type="MSArtboardGroup" transform="translate(-874.000000, -165.000000)" fill="#02C2B9">
            <g id="welcome-header" sketch:type="MSLayerGroup" transform="translate(110.000000, 150.000000)">
                <g id="Rectangle-469-+-step---complete-+-1,529-Total-Contacts-+-Path-Copy-+-contacts" transform="translate(746.000000, 0.000000)" sketch:type="MSShapeGroup">
                    <g id="Path-Copy-+-contacts" transform="translate(18.000000, 15.000000)">
                        <path d="M33.3103448,0 C34.623929,0 35.7454156,0.464704405 36.6748384,1.39412716 C37.6042611,2.32354991 38.0689655,3.44503654 38.0689655,4.75862069 L38.0689655,26.1724138 C38.0689655,27.4859979 37.6042611,28.6074846 36.6748384,29.5369073 C35.7454156,30.4663301 34.623929,30.9310345 33.3103448,30.9310345 L4.75862069,30.9310345 C3.44503654,30.9310345 2.32354991,30.4663301 1.39412716,29.5369073 C0.464704405,28.6074846 0,27.4859979 0,26.1724138 L0,4.75862069 C0,3.44503654 0.464704405,2.32354991 1.39412716,1.39412716 C2.32354991,0.464704405 3.44503654,0 4.75862069,0 L33.3103448,0 Z M35.6896552,26.1724138 L35.6896552,4.75862069 C35.6896552,4.10182861 35.457303,3.5410853 34.9925916,3.07637392 C34.5278802,2.61166255 33.9671369,2.37931034 33.3103448,2.37931034 L4.75862069,2.37931034 C4.10182861,2.37931034 3.5410853,2.61166255 3.07637392,3.07637392 C2.61166255,3.5410853 2.37931034,4.10182861 2.37931034,4.75862069 L2.37931034,26.1724138 C2.37931034,26.8292059 2.61166255,27.3899492 3.07637392,27.8546606 C3.5410853,28.3193719 4.10182861,28.5517241 4.75862069,28.5517241 L9.51724138,28.5517241 L9.51724138,26.1724138 L7.73275862,26.1724138 C7.55926637,26.1724138 7.41675702,26.1166493 7.30522629,26.0051185 C7.19369556,25.8935878 7.13793103,25.7510785 7.13793103,25.5775862 C7.13793103,25.404094 7.19369556,25.2615846 7.30522629,25.1500539 C7.41675702,25.0385231 7.55926637,24.9827586 7.73275862,24.9827586 L12.4913793,24.9827586 C12.6648716,24.9827586 12.8073809,25.0385231 12.9189116,25.1500539 C13.0304424,25.2615846 13.0862069,25.404094 13.0862069,25.5775862 C13.0862069,25.7510785 13.0304424,25.8935878 12.9189116,26.0051185 C12.8073809,26.1166493 12.6648716,26.1724138 12.4913793,26.1724138 L10.7068966,26.1724138 L10.7068966,28.5517241 L27.362069,28.5517241 L27.362069,26.1724138 L25.5775862,26.1724138 C25.404094,26.1724138 25.2615846,26.1166493 25.1500539,26.0051185 C25.0385231,25.8935878 24.9827586,25.7510785 24.9827586,25.5775862 C24.9827586,25.404094 25.0385231,25.2615846 25.1500539,25.1500539 C25.2615846,25.0385231 25.404094,24.9827586 25.5775862,24.9827586 L30.3362069,24.9827586 C30.4973068,24.9827586 30.6367182,25.0416212 30.754445,25.1593481 C30.8721719,25.2770749 30.9310345,25.4164863 30.9310345,25.5775862 C30.9310345,25.7386862 30.8721719,25.8780975 30.754445,25.9958244 C30.6367182,26.1135512 30.4973068,26.1724138 30.3362069,26.1724138 L28.5517241,26.1724138 L28.5517241,28.5517241 L33.3103448,28.5517241 C33.9671369,28.5517241 34.5278802,28.3193719 34.9925916,27.8546606 C35.457303,27.3899492 35.6896552,26.8292059 35.6896552,26.1724138 L35.6896552,26.1724138 Z M10.112069,13.0862069 C9.29417695,13.0862069 8.59402231,12.8228744 8.01158405,12.2962015 C7.42914579,11.7695286 7.13793103,11.1406287 7.13793103,10.4094828 L7.13793103,8.625 C7.13793103,7.8938541 7.42914579,7.26495414 8.01158405,6.73828125 C8.59402231,6.21160836 9.29417695,5.94827586 10.112069,5.94827586 C10.929961,5.94827586 11.6301156,6.21160836 12.2125539,6.73828125 C12.7949921,7.26495414 13.0862069,7.8938541 13.0862069,8.625 L13.0862069,10.4094828 C13.0862069,11.1406287 12.7949921,11.7695286 12.2125539,12.2962015 C11.6301156,12.8228744 10.929961,13.0862069 10.112069,13.0862069 L10.112069,13.0862069 Z M10.112069,14.2758621 C11.5867531,14.2758621 12.847651,14.7746448 13.8948006,15.7722252 C14.9419503,16.7698056 15.4655172,17.968743 15.4655172,19.3690733 C15.4655172,19.604527 15.3787724,19.8058989 15.2052802,19.973195 C15.0317879,20.1404911 14.8211219,20.2241379 14.5732759,20.2241379 L5.65086207,20.2241379 C5.403016,20.2241379 5.19235001,20.1404911 5.01885776,19.973195 C4.84536551,19.8058989 4.75862069,19.604527 4.75862069,19.3690733 C4.75862069,17.968743 5.28218765,16.7698056 6.32933728,15.7722252 C7.37648692,14.7746448 8.63738487,14.2758621 10.112069,14.2758621 L10.112069,14.2758621 Z M31.5258621,11.8965517 C31.6993543,11.8965517 31.8418637,11.9523163 31.9533944,12.063847 C32.0649251,12.1753777 32.1206897,12.3178871 32.1206897,12.4913793 C32.1206897,12.6648716 32.0649251,12.8073809 31.9533944,12.9189116 C31.8418637,13.0304424 31.6993543,13.0862069 31.5258621,13.0862069 L18.4396552,13.0862069 C18.2661629,13.0862069 18.1236536,13.0304424 18.0121228,12.9189116 C17.9005921,12.8073809 17.8448276,12.6648716 17.8448276,12.4913793 C17.8448276,12.3178871 17.9005921,12.1753777 18.0121228,12.063847 C18.1236536,11.9523163 18.2661629,11.8965517 18.4396552,11.8965517 L31.5258621,11.8965517 Z M31.5258621,8.32758621 C31.6993543,8.32758621 31.8418637,8.38335074 31.9533944,8.49488147 C32.0649251,8.6064122 32.1206897,8.74892155 32.1206897,8.92241379 C32.1206897,9.09590604 32.0649251,9.23841539 31.9533944,9.34994612 C31.8418637,9.46147685 31.6993543,9.51724138 31.5258621,9.51724138 L18.4396552,9.51724138 C18.2661629,9.51724138 18.1236536,9.46147685 18.0121228,9.34994612 C17.9005921,9.23841539 17.8448276,9.09590604 17.8448276,8.92241379 C17.8448276,8.74892155 17.9005921,8.6064122 18.0121228,8.49488147 C18.1236536,8.38335074 18.2661629,8.32758621 18.4396552,8.32758621 L31.5258621,8.32758621 Z M31.5258621,15.4655172 C31.6993543,15.4655172 31.8418637,15.5212818 31.9533944,15.6328125 C32.0649251,15.7443432 32.1206897,15.8868526 32.1206897,16.0603448 C32.1206897,16.2338371 32.0649251,16.3763464 31.9533944,16.4878772 C31.8418637,16.5994079 31.6993543,16.6551724 31.5258621,16.6551724 L18.4396552,16.6551724 C18.2661629,16.6551724 18.1236536,16.5994079 18.0121228,16.4878772 C17.9005921,16.3763464 17.8448276,16.2338371 17.8448276,16.0603448 C17.8448276,15.8868526 17.9005921,15.7443432 18.0121228,15.6328125 C18.1236536,15.5212818 18.2661629,15.4655172 18.4396552,15.4655172 L31.5258621,15.4655172 Z" id="contacts"></path>
                    </g>
                </g>
            </g>
        </g>
    </g>
</svg>