<?xml version="1.0" encoding="UTF-8" standalone="no"?>
<svg width="175px" height="60px" viewBox="0 0 175 60" version="1.1" xmlns="http://www.w3.org/2000/svg" xmlns:xlink="http://www.w3.org/1999/xlink" xmlns:sketch="http://www.bohemiancoding.com/sketch/ns">
    <!-- Generator: Sketch 3.4.4 (17249) - http://www.bohemiancoding.com/sketch -->
    <title>header-logo</title>
    <desc>Created with Sketch.</desc>
    <defs></defs>
    <g id="assets" stroke="none" stroke-width="1" fill="none" fill-rule="evenodd" sketch:type="MSPage">
        <g id="header-logo" sketch:type="MSArtboardGroup">
            <g sketch:type="MSLayerGroup">
                <g id="Advisor-Connect-+-powered-by" transform="translate(80.000000, 17.000000)" font-family="Larsseit" fill="#BFBFBF" sketch:type="MSTextLayer">
                    <text id="powered-by" font-size="11" font-weight="420">
                        <tspan x="1" y="8">powered by</tspan>
                    </text>
                    <text id="ADVISOR-CONNECT" font-size="10" font-weight="bold">
                        <tspan x="0" y="22">ADVISOR CONNECT</tspan>
                    </text>
                </g>
                <path d="M0,2.94416034 C0,1.31905857 1.32421795,0 2.95876592,0 L57.0103594,0 C58.6449074,0 59.9702563,1.31905857 59.9702563,2.94416034 L60,57.0541513 C60,58.6798159 58.675782,60 57.0412341,60 L2.95876592,60 C1.32421795,60 0,58.6798159 0,57.0541513 L0,2.94416034 M48.1759064,50.1753267 C46.2664269,50.4105714 45.3253715,50.1501139 45.3253715,50.1501139 C44.3049241,50.0973245 44.2784601,49.344429 44.2784601,49.344429 L44.2784601,44.7628981 C47.4690688,44.6684626 48.1759064,44.7992541 48.1759064,44.7992541 C48.9336364,44.8244669 49.1434258,45.0322477 49.1434258,45.0322477 L49.4824817,43.0228754 C49.4824817,43.0228754 49.3267513,43.1537795 47.2338332,43.1021157 C47.2338332,43.1021157 47.8092556,43.1021157 44.2784601,43.0756647 L44.2729185,39.0202265 C44.265115,38.369533 45.0382258,38.4063392 45.0382258,38.4063392 C48.2013526,38.3277743 48.8817263,38.5102296 48.8817263,38.5102296 C49.613897,38.5102296 49.8226686,38.8905606 49.8226686,38.8905606 L50.1628554,37.2504887 C50.2942707,36.9251982 49.4305716,36.9635802 49.4305716,36.9635802 L48.2013526,36.9635802 C47.3111895,37.0548642 47.3387845,36.1046557 47.3387845,36.1046557 C47.3387845,33.5946288 47.3387845,31.4473739 47.3399154,29.6759476 C47.3410463,25.3875159 47.3431951,23.2215765 47.3431951,23.2215765 C47.3951053,22.2323107 47.939653,22.1646638 47.939653,22.1646638 L46.7114519,22.1646638 C51.3920744,7.84816776 51.9674968,7.60414361 51.9674968,7.60414361 C49.7707584,7.78671149 48.8298161,7.63003178 48.8298161,7.63003178 C49.6658072,7.94170284 49.0120106,9.42498246 49.0120106,9.42498246 C47.5209789,14.5274283 46.2398498,17.7546702 46.2398498,17.7546702 C44.3049241,13.0182605 43.8078759,11.7685372 43.8078759,11.7685372 C42.3434213,7.99494243 42.4472416,7.52557864 42.4472416,7.52557864 C40.565357,7.73335935 39.336025,7.52557864 39.336025,7.52557864 C39.8595372,7.73335935 39.5348443,8.77485171 39.5348443,8.77485171 C38.0173486,13.902623 36.8245459,17.0523129 36.8245459,17.0523129 C33.9745765,11.4816288 33.1004727,8.61929757 33.1004727,8.61929757 C32.7089412,7.42168828 32.1594173,7.57836799 32.1594173,7.57836799 C23.2411617,7.68169556 21.5795843,7.55247982 21.5795843,7.55247982 C22.5464251,7.70747118 22.4686164,9.86857064 22.4686164,9.86857064 L22.4730271,19.5507464 L16.7675465,10.5192642 C15.5123159,8.48906881 15.6161363,7.60414361 15.6161363,7.60414361 L11.2222071,7.60414361 C11.9290448,8.07249438 11.9019022,9.73822932 11.9019022,9.73822932 C12.2200357,14.4725004 11.8240936,21.060477 11.8240936,21.060477 C11.7461718,22.3097501 10.5169528,22.3097501 10.5169528,22.3097501 L13.9942548,22.3097501 C15.3809007,22.4405416 14.4658569,24.392172 14.4658569,24.392172 L11.8760037,28.9472519 L9.52240393,25.6414451 C7.27318993,22.1926905 6.09701206,22.2218429 6.09701206,22.2218429 L2.48829477,22.2218429 C4.26590667,22.455962 7.43005134,26.6307109 7.43005134,26.6307109 L9.36565561,29.2862744 C9.45172016,29.4204427 9.52964194,29.5523598 9.60032571,29.6759476 C10.3600914,31.0676056 10.2292416,32.0706034 10.2292416,32.0706034 L10.2292416,35.2719571 C10.1763136,36.6520217 8.92108299,37.0163696 8.92108299,37.0163696 L10.9349483,36.990594 C12.399516,36.9119164 12.4519916,39.1246797 12.4519916,39.1246797 C12.5298003,44.6936754 12.4519916,49.2234299 12.4519916,49.2234299 C12.4778901,51.3834038 11.4055326,51.7219761 11.4055326,51.7219761 C14.1775802,51.5658591 16.6361313,51.7471889 16.6361313,51.7471889 C19.1602769,52.0077589 19.5131302,51.7944629 19.5131302,51.7944629 C20.1272308,51.6570305 20.1669268,51.2536253 20.1669268,51.2536253 L20.4800841,49.4729694 C19.9836014,50.2380211 19.0685576,50.3435998 19.0685576,50.3435998 C18.2320011,50.5127734 15.8254733,50.3787177 15.8254733,50.3787177 C15.8254733,50.3787177 14.7271041,50.3007155 14.7790143,49.5982456 C14.7790143,49.5982456 14.5702427,43.2636354 14.8585194,38.0045098 C14.8585194,38.0045098 14.8314899,36.8339143 16.2440343,36.7294611 L13.7331207,36.7294611 C12.4519916,36.5470058 12.4519916,35.6621931 12.4519916,35.6621931 L12.4519916,32.2271706 C12.4027957,31.5221119 12.9334329,30.4053187 13.3333333,29.6759476 C13.5690213,29.2439529 13.7590192,28.9472519 13.7590192,28.9472519 C17.551062,22.3356383 18.1005858,22.2064225 18.1005858,22.2064225 L15.1456651,22.2064225 C13.9423447,22.1014066 13.8484766,21.008363 13.8484766,21.008363 L13.8484766,10.7791589 C20.4386917,20.6955664 21.4480559,22.5180936 21.4480559,22.5180936 C18.6505621,23.0391212 17.760399,25.3039984 17.760399,25.3039984 C17.0160141,26.8225085 16.9470268,28.7234881 16.9696456,29.6759476 C16.9784669,30.0871193 17.0027821,30.327204 17.0027821,30.327204 C17.0546923,34.4129201 18.4153265,35.428074 18.4153265,35.428074 C19.3562688,36.5470058 21.3702472,36.8598024 21.3702472,36.8598024 C22.4686164,37.1202599 22.4426048,38.968 22.4426048,38.968 L22.4426048,44.1737734 C22.4167062,49.6916681 21.9981453,50.7062593 21.9981453,50.7062593 C21.7888082,51.6703123 21.1079822,51.7219761 21.1079822,51.7219761 C24.1671756,51.4878569 25.8409672,51.8263166 25.8409672,51.8263166 C24.9000249,51.4361932 24.9000249,50.6545955 24.9000249,50.6545955 C24.7686096,44.2517756 24.9000249,38.9943384 24.9000249,38.9943384 C24.8729954,37.3021525 25.9459184,36.8861408 25.9459184,36.8861408 C28.4037909,36.2612229 28.7958879,35.3764102 28.7958879,35.3764102 C30.2896338,33.8270595 30.3514962,30.8207676 30.3133835,29.6759476 C30.3034313,29.3379382 30.2869195,29.1554829 30.2869195,29.1554829 C30.3001515,25.9926237 28.7699894,24.3141698 28.7699894,24.3141698 C27.7240958,23.013233 25.6057316,22.3883151 25.6057316,22.3883151 L30.9937572,22.4142032 C32.5620321,22.5697574 32.5360204,24.9648634 32.5360204,24.9648634 C32.7039651,26.5174783 32.7486372,28.182763 32.7371016,29.6759476 C32.7149352,32.3815991 32.5101219,34.5437116 32.5101219,34.5437116 C32.3007849,36.9119164 31.2548913,36.7294611 31.2548913,36.7294611 L29.8942571,36.7250714 C30.7844202,36.9850787 30.6530049,39.1763435 30.6530049,39.1763435 C30.8104318,44.4858947 30.4177693,50.2380211 30.4177693,50.2380211 C30.3128181,51.5130698 29.4496845,51.7999782 29.4496845,51.7999782 C31.9866097,51.5658591 33.7134424,51.7999782 33.7134424,51.7999782 C32.9286829,51.6186485 32.9546945,49.9522382 32.9546945,49.9522382 L32.9027844,45.1102498 C36.196761,44.9552585 37.1913099,45.1641648 37.1913099,45.1641648 C37.8439755,45.1378264 38.106806,45.3971583 38.106806,45.3971583 L38.525367,43.2680251 C38.2372034,43.424142 36.2243559,43.3724782 36.2243559,43.3724782 L32.9286829,43.3724782 L32.9286829,38.9163362 C32.9546945,38.448098 33.7134424,38.4738736 33.7134424,38.4738736 C36.9814073,38.291981 37.688245,38.5360052 37.688245,38.5360052 C38.4205288,38.587669 38.472439,38.811883 38.472439,38.811883 L38.7606026,37.4071684 C38.9693741,36.8339143 38.3167085,36.9433199 38.3167085,36.9433199 L36.3540748,36.9378046 C34.9155188,37.0422577 35.0989573,35.8188729 35.0989573,35.8188729 L35.0989573,29.6759476 L35.0989573,24.3662838 C35.1248558,23.6381509 35.7261767,23.5590232 35.7261767,23.5590232 C37.4265454,23.2215765 38.497772,23.5847988 38.497772,23.5847988 C39.7811631,23.9294491 39.8330732,25.1730943 39.8330732,25.1730943 C40.1721291,26.5790471 39.0478614,27.6722032 39.0478614,27.6722032 C38.2891136,28.4273499 36.9814073,28.4003362 36.9814073,28.4003362 C36.4059849,28.2964458 36.6942616,28.661469 36.6942616,28.661469 C36.8113139,28.9829326 36.9417113,29.320942 37.0796861,29.6759476 C38.2989527,32.7235481 40.1853611,36.5212302 40.1853611,36.5212302 C40.5387799,37.0680334 41.1406664,36.990594 41.1406664,36.990594 C41.7812309,37.0548642 41.7426659,37.9529586 41.7426659,37.9529586 C41.8464862,44.0967842 41.6365837,49.613666 41.6365837,49.613666 C41.5062993,51.5658591 40.7486825,51.7471889 40.7486825,51.7471889 C44.1735089,51.5395207 45.1155821,51.7736398 45.1155821,51.7736398 C49.4041076,52.0352229 49.5619868,51.8263166 49.5619868,51.8263166 C50.032458,51.8527676 50.1109452,50.8887146 50.1109452,50.8887146 L50.5040601,49.0663 C50.1109452,50.2908104 48.1759064,50.1753267 48.1759064,50.1753267 M50.2368189,28.1145533 C50.2368189,28.1145533 52.3860578,25.595184 54.4259347,23.6425406 C54.4259347,23.6425406 55.5767795,22.3932676 56.2041121,22.1591485 L54.112325,22.1591485 C54.112325,22.1591485 53.301667,22.1328101 52.8565289,22.6273867 C52.8565289,22.6273867 50.8961571,24.7824081 47.57402,28.6872446 C47.57402,28.6872446 47.8347018,28.7175225 52.8046188,36.3706286 C52.8046188,36.3706286 53.2750899,37.0466475 53.8505123,36.9690955 L56.8159508,36.9690955 C56.8159508,36.9690955 55.5767795,36.5212302 50.2368189,28.1145533 M25.9459184,9.08753578 C28.7958879,8.95730703 29.2935016,9.08753578 29.2935016,9.08753578 C30.5221551,9.035872 30.9401506,10.2323557 30.9401506,10.2323557 C33.791251,15.828928 35.1508674,19.473307 35.1508674,19.473307 C35.9096153,21.3990493 35.7261767,21.7898481 35.7261767,21.7898481 C35.7261767,22.1530704 35.3214132,22.2064225 35.3214132,22.2064225 L32.0396508,22.2064225 C32.3135645,19.5903666 32.3007849,19.2693533 32.3007849,19.2693533 C31.7513741,20.2454499 31.3587116,20.3108456 31.3587116,20.3108456 C30.4696795,20.7790839 26.3644794,20.6753061 26.3644794,20.6753061 C25.161159,20.6620243 25.0303092,19.6859277 25.0303092,19.6859277 C24.951935,17.3436111 25.0303092,15.4909185 25.0303092,15.4909185 C25.0822194,15.3342388 25.2390808,15.3342388 25.2390808,15.3342388 C29.7379611,15.1782344 29.8164484,15.5166941 29.8164484,15.5166941 L30.0775825,13.3815954 C29.6330099,13.5381625 29.1885504,13.569566 29.1885504,13.569566 C26.6776368,13.7003576 25.0303092,13.6168401 25.0303092,13.6168401 L25.0303092,10.3625845 C24.9778336,9.08753578 25.9459184,9.08753578 25.9459184,9.08753578 M19.5656058,29.0780435 C19.408179,32.8257501 20.3243537,34.3139822 20.3243537,34.3139822 C21.4480559,36.3128867 23.2781434,36.2827213 23.2781434,36.2827213 C26.0503042,36.365676 26.9288186,34.2623185 26.9288186,34.2623185 C27.7660537,32.4096259 27.61971,29.0780435 27.61971,29.0780435 C27.5545679,26.2662505 26.7035353,25.0423028 26.7035353,25.0423028 C25.7233494,23.2595083 23.7486146,23.3770181 23.7486146,23.3770181 C21.3961458,23.2215765 20.3398475,25.0423028 20.3398475,25.0423028 C19.5131302,26.2404748 19.5656058,29.0780435 19.5656058,29.0780435 M39.1792767,28.7905722 C41.0622922,32.9296405 42.8404696,35.5060762 42.8404696,35.5060762 C43.9382733,37.2109811 44.5280586,36.9251982 44.5280586,36.9251982 C44.8018593,36.9251982 44.7908891,36.2095591 44.7908891,36.2095591 C45.1320938,29.8837283 44.8173531,24.3662838 44.8173531,24.3662838 C44.6340277,22.2839745 43.9382733,22.1530704 43.9382733,22.1530704 L45.0636719,22.1530704 C45.0106308,21.5815046 44.8284364,21.1649302 44.8284364,21.1649302 C42.3953315,14.1630805 40.9573409,11.0650543 40.9573409,11.0650543 C38.9693741,16.6098503 37.701477,21.0995344 37.701477,21.0995344 C37.5832938,21.5815046 37.5060505,22.2064225 37.5060505,22.2064225 C40.146683,22.1530704 40.7221054,22.5966586 40.7221054,22.5966586 C42.3301893,23.2595083 42.4219086,25.2247581 42.4219086,25.2247581 C42.4738187,27.0730609 41.4013481,27.8282076 41.4013481,27.8282076 C40.5387799,28.6355809 39.1792767,28.7905722 39.1792767,28.7905722" id="path2434" fill="#1378C7" sketch:type="MSShapeGroup"></path>
            </g>
        </g>
    </g>
</svg>