<?xml version="1.0" encoding="UTF-8" standalone="no"?>
<svg width="48px" height="36px" viewBox="0 0 48 36" version="1.1" xmlns="http://www.w3.org/2000/svg" xmlns:xlink="http://www.w3.org/1999/xlink" xmlns:sketch="http://www.bohemiancoding.com/sketch/ns">
    <!-- Generator: Sketch 3.4.4 (17249) - http://www.bohemiancoding.com/sketch -->
    <title>cloud</title>
    <desc>Created with Sketch.</desc>
    <defs></defs>
    <g id="screens" stroke="none" stroke-width="1" fill="none" fill-rule="evenodd" sketch:type="MSPage">
        <g id="onboarding-–-step-2.2" sketch:type="MSArtboardGroup" transform="translate(-846.000000, -638.000000)" fill="#95A5A6">
            <g id="Group" sketch:type="MSLayerGroup" transform="translate(680.000000, 460.000000)">
                <g id="upload-box" transform="translate(0.000000, 156.000000)" sketch:type="MSShapeGroup">
                    <path d="M202.773438,58 L178.632812,58 C176.351551,58 174.242197,57.4414118 172.304688,56.3242188 C170.367178,55.2070257 168.832037,53.6914158 167.699219,51.7773438 C166.566401,49.8632717 166,47.7812613 166,45.53125 C166,42.2499836 167.14452,39.4101682 169.433594,37.0117188 C171.722668,34.6132693 174.515609,33.312501 177.8125,33.109375 C178.468753,29.8906089 180.082018,27.2343855 182.652344,25.140625 C185.222669,23.0468645 188.179671,22 191.523438,22 C194.0547,22 196.398427,22.6171813 198.554688,23.8515625 C200.710948,25.0859437 202.417962,26.7695206 203.675781,28.9023438 C204.9336,31.0351669 205.5625,33.35155 205.5625,35.8515625 C205.5625,36.0234384 205.554688,36.1484371 205.539062,36.2265625 C208.007825,36.8515656 210.035148,38.1562401 211.621094,40.140625 C213.207039,42.1250099 214,44.3827998 214,46.9140625 C214,48.9140725 213.500005,50.7656165 212.5,52.46875 C211.499995,54.1718835 210.136727,55.5195263 208.410156,56.5117188 C206.683585,57.5039112 204.804698,58 202.773438,58 L202.773438,58 Z M190.719275,40.1086288 C190.820662,40.0362093 190.914806,40 191.00171,40 C191.088613,40 191.182757,40.0362093 191.284145,40.1086288 L199.887549,48.7120327 C200.00342,48.827904 200.032387,48.972741 199.974452,49.146548 C199.902032,49.3058711 199.778921,49.3855315 199.605114,49.3855315 L194.521284,49.3855315 L194.521284,58.0037842 L187.482135,58.0037842 L187.482136,49.3855315 L182.398306,49.3855315 C182.224499,49.3855315 182.101388,49.3058711 182.028968,49.146548 C181.971032,48.972741 182,48.827904 182.115871,48.7120327 L190.719275,40.1086288 Z" id="cloud"></path>
                </g>
            </g>
        </g>
    </g>
</svg>