<?xml version="1.0" encoding="UTF-8" standalone="no"?>
<svg width="25px" height="25px" viewBox="0 0 25 25" version="1.1" xmlns="http://www.w3.org/2000/svg" xmlns:xlink="http://www.w3.org/1999/xlink" xmlns:sketch="http://www.bohemiancoding.com/sketch/ns">
    <!-- Generator: Sketch 3.4.4 (17249) - http://www.bohemiancoding.com/sketch -->
    <title>Erin Manion Swetnam Copy 3</title>
    <desc>Created with Sketch.</desc>
    <defs></defs>
    <g id="screens" stroke="none" stroke-width="1" fill="none" fill-rule="evenodd" sketch:type="MSPage">
        <g id="onboarding-–-step-2.2" sketch:type="MSArtboardGroup" transform="translate(-736.000000, -479.000000)" fill="#FFFFFF">
            <g id="Group" sketch:type="MSLayerGroup" transform="translate(680.000000, 460.000000)">
                <g id="Rectangle-3-+-Blue-Button-Copy-15" sketch:type="MSShapeGroup">
                    <g id="Erin-Manion-Swetnam-Copy-3-+-Sign-In-With-LinkedI" transform="translate(56.000000, 19.000000)">
                        <path d="M0.524902344,8.50374065 L0.524902344,25 L5.72509766,25 L5.72509766,8.50374065 L0.524902344,8.50374065 Z M14.0625,15.4239401 C14.0625,13.2917706 15.3930664,12.2319202 16.9555664,12.2319202 C18.5180664,12.2319202 19.7875977,13.2917706 19.7875977,15.9600998 L19.7875977,25 L25,25 L25,15.4239401 C25,10.6359102 22.3999023,7.98004988 18.75,7.98004988 C16.6625977,7.98004988 15.1000977,9.18952618 14.0625,10.7855362 L13.8916016,8.50374065 L8.76464844,8.50374065 C8.76464844,9.06483791 8.85009766,12.2319202 8.85009766,12.2319202 L8.85009766,25 L14.0625,25 L14.0625,15.4239401 Z M3.10058594,5.8478803 C5.02929688,5.8478803 6.25,4.55112219 6.25,2.91770574 C6.22558594,1.27182045 5.02929688,0 3.14941406,0 C1.24511719,0 0,1.27182045 0,2.91770574 C0,4.55112219 1.22070312,5.8478803 3.06396484,5.8478803 L3.10058594,5.8478803 L3.10058594,5.8478803 Z" id="Erin-Manion-Swetnam-Copy-3"></path>
                    </g>
                </g>
            </g>
        </g>
    </g>
</svg>